<!--?xml version="1.0" encoding="utf-8"?-->
<!-- Generator: Adobe Illustrator 18.1.1, SVG Export Plug-In . SVG Version: 6.00 Build 0)  -->

<svg version="1.1" id="_x32_" xmlns="http://www.w3.org/2000/svg" xmlns:xlink="http://www.w3.org/1999/xlink" x="0px" y="0px" viewBox="0 0 512 512" style="width: 256px; height: 256px; opacity: 1;" xml:space="preserve">
<style type="text/css">
	.st0{fill:#4B4B4B;}
</style>
<g>
	<path class="st0" d="M452.426,18.188C414.939,10.242,384.957,7.22,359.732,7.22c-33.951-0.031-59.192,5.602-80.542,10.77
		c-21.485,5.208-38.63,9.634-60.58,9.642c-22.25-0.008-50.45-4.576-92.804-19.836l-21.232-7.661
		c-0.655-0.237-1.389-0.158-1.981,0.205c-0.592,0.371-0.986,0.986-1.073,1.681L41.578,512h111.275l22.629-185.544
		c1.783,0.032,3.59,0.111,5.357,0.103c22.921-0.016,44.461-2.99,66.719-5.752c22.274-2.793,45.337-5.445,71.879-5.445
		c26.621,0,56.801,2.652,93.151,10.794l21.887,4.908l35.947-309.058L452.426,18.188z M117.078,471.602H87.001l18.582-158.071
		c10.225,3.669,20.12,6.391,29.754,8.403L117.078,471.602z M399.475,282.35c-29.904-5.381-56.336-7.393-80.038-7.385
		c-29.249,0-54.371,2.935-76.889,5.752c-22.542,2.833-42.402,5.46-61.709,5.445c-22.313-0.056-44.058-3.306-70.388-14.061
		L136.11,53.772c33.32,10.242,59.696,14.265,82.499,14.257c27.671,0.008,49.298-5.767,70.064-10.77
		c20.901-5.026,41.416-9.603,71.058-9.634c18.061,0,39.632,1.814,66.277,6.589L399.475,282.35z" style="fill: rgb(208, 208, 208);"></path>
	<path class="st0" d="M165.287,235.884c-6.644-0.813-12.688,3.922-13.5,10.565c-0.805,6.644,3.922,12.687,10.565,13.493
		c6.644,0.812,12.687-3.914,13.5-10.558C176.657,242.742,171.93,236.697,165.287,235.884z" style="fill: rgb(208, 208, 208);"></path>
	<path class="st0" d="M177.746,133.746c-6.644-0.813-12.687,3.914-13.5,10.558c-0.805,6.643,3.921,12.687,10.565,13.5
		c6.644,0.812,12.688-3.922,13.5-10.566C189.123,140.596,184.389,134.551,177.746,133.746z" style="fill: rgb(208, 208, 208);"></path>
	<path class="st0" d="M171.52,184.812c-6.652-0.805-12.688,3.922-13.5,10.565c-0.813,6.644,3.921,12.688,10.565,13.5
		c6.644,0.805,12.687-3.921,13.492-10.565C182.89,191.668,178.164,185.624,171.52,184.812z" style="fill: rgb(208, 208, 208);"></path>
	<path class="st0" d="M182.511,82.587c-3.196,0-6.312,1.293-8.569,3.55c-2.256,2.257-3.55,5.382-3.55,8.569
		c0,3.187,1.294,6.312,3.55,8.568c2.257,2.256,5.373,3.551,8.569,3.551c3.188,0,6.312-1.294,8.569-3.551
		c2.256-2.257,3.55-5.381,3.55-8.568c0-3.188-1.294-6.312-3.55-8.569C188.823,83.88,185.699,82.587,182.511,82.587z" style="fill: rgb(208, 208, 208);"></path>
</g>
</svg>
